<svg xmlns="http://www.w3.org/2000/svg" enable-background="new 0 0 1440 1080" viewBox="0 0 1440 1080"><g id="Layer_1"><path fill="#153a63" d="M1154 435.2c18.5 13 71 50.4 89.4 19.2 18.4-31.1-1.5-77.5-25.5-85.8-24-8.2-109.8-10.8-94.5 23.2 15.3 34 24 38.7 30.6 43.4zM1088 387.2c11.2 9.2 25.2 21.4 21.8 6.8-3.4-14.6-20.5-27.8-34.4-33.6-22.5-9.5 1.3 17.6 12.6 26.8zM582.4 960.8c-36.5-9.5-18.6 38.8-3 51.2 15.7 12.4 46.3 1.5 49.4-13.3 3-14.8-21.1-31.3-46.4-37.9zM1165.8 841.7c-6.6 4.2-43.9 24.3-55.9 44.9s-39.3 42.9 12.3 41.4c51.5-1.5 62.6-98.3 43.6-86.3z"/><path fill="#153a63" d="M1106 432.1c-73.5-30-109.3-162-216.5-221.5S714.9 260.9 520.1 340s-191.2 235.9-184 272c32.4 162.1 169.7 280.3 305.1 339 60.3 26.1 120.2 40.5 170.3 41.5 162.5 3.5 268.5-115 268.5-115 2.1-2.5 4.6-5.2 7.4-7.9 46-45 175.8-115 208.6-206.5 34.7-96.9-116.4-201-190-231z"/><linearGradient id="SVGID_1_" x1="998.887" x2="1346.632" y1="17.853" y2="731.725" gradientUnits="userSpaceOnUse"><stop offset="0" stop-color="#78b5d9"/><stop offset=".176" stop-color="#6ba8cf"/><stop offset=".501" stop-color="#4e88b6"/><stop offset=".936" stop-color="#1d5d93"/><stop offset="1" stop-color="#12578e"/></linearGradient><path fill="url(#SVGID_1_)" d="M1149.6 429c18.5 13 71 50.4 89.4 19.2 18.4-31.1-1.5-77.5-25.5-85.8-24-8.2-109.8-10.8-94.5 23.2 15.3 34 23.9 38.7 30.6 43.4z"/><linearGradient id="SVGID_2_" x1="928.328" x2="1276.073" y1="52.224" y2="766.096" gradientUnits="userSpaceOnUse"><stop offset="0" stop-color="#78b5d9"/><stop offset=".176" stop-color="#6ba8cf"/><stop offset=".501" stop-color="#4e88b6"/><stop offset=".936" stop-color="#1d5d93"/><stop offset="1" stop-color="#12578e"/></linearGradient><path fill="url(#SVGID_2_)" d="M1083.6 381c11.2 9.2 25.2 21.4 21.8 6.8-3.4-14.6-20.5-27.8-34.4-33.6-22.5-9.5 1.3 17.6 12.6 26.8z"/><linearGradient id="SVGID_3_" x1="289.422" x2="637.167" y1="363.45" y2="1077.323" gradientUnits="userSpaceOnUse"><stop offset="0" stop-color="#78b5d9"/><stop offset=".176" stop-color="#6ba8cf"/><stop offset=".501" stop-color="#4e88b6"/><stop offset=".936" stop-color="#1d5d93"/><stop offset="1" stop-color="#12578e"/></linearGradient><path fill="url(#SVGID_3_)" d="M577.9 954.6c-36.5-9.5-18.6 38.8-3 51.2 15.7 12.4 46.3 1.5 49.4-13.3 3.1-14.8-21-31.3-46.4-37.9z"/><linearGradient id="SVGID_4_" x1="765.368" x2="1113.112" y1="131.541" y2="845.413" gradientUnits="userSpaceOnUse"><stop offset="0" stop-color="#78b5d9"/><stop offset=".176" stop-color="#6ba8cf"/><stop offset=".501" stop-color="#4e88b6"/><stop offset=".936" stop-color="#1d5d93"/><stop offset="1" stop-color="#12578e"/></linearGradient><path fill="url(#SVGID_4_)" d="M1161.3 835.6c-6.6 4.2-43.9 24.3-55.9 44.9s-39.3 42.9 12.3 41.4c51.6-1.6 62.7-98.4 43.6-86.3z"/><linearGradient id="SVGID_5_" x1="612.986" x2="960.731" y1="205.834" y2="919.707" gradientUnits="userSpaceOnUse"><stop offset="0" stop-color="#78b5d9"/><stop offset=".176" stop-color="#6ba8cf"/><stop offset=".501" stop-color="#4e88b6"/><stop offset=".936" stop-color="#1d5d93"/><stop offset="1" stop-color="#12578e"/></linearGradient><path fill="url(#SVGID_5_)" d="M1101.6 425.9c-73.5-30-109.3-162-216.5-221.5s-174.6 50.3-369.4 129.4-191.2 235.9-184 272c32.4 162.1 169.7 280.3 305.1 339 60.3 26.1 120.2 40.5 170.3 41.5 162.5 3.5 268.5-115 268.5-115 2.1-2.5 4.6-5.2 7.4-7.9 46-45 175.8-115 208.6-206.5 34.7-96.8-116.5-201-190-231z"/><path fill="none" stroke="#fff" stroke-dasharray="7" stroke-linecap="round" stroke-miterlimit="10" stroke-width="1.5" d="M1153.7 737s-124.9 15.3-110.3-49.8c14.6-65.1 105.4 63.6-35.7 49.8"/><path fill="none" stroke="#fff" stroke-linecap="round" stroke-miterlimit="10" stroke-width="1.5" d="M955.5 434.6s-.8 1-2.1 2.8"/><path fill="none" stroke="#fff" stroke-dasharray="6.974 6.974" stroke-linecap="round" stroke-miterlimit="10" stroke-width="1.5" d="M949.5 443.2c-14.4 22.9-43.4 84.5 48.2 99 113.1 17.9 7-78.2-42.2 18.5-39.3 77.3-46.7 130.4-48 148.7"/><path fill="none" stroke="#fff" stroke-linecap="round" stroke-miterlimit="10" stroke-width="1.5" d="M907.2 712.8c-.1 2.3-.1 3.5-.1 3.5"/><path fill="#febc12" d="M1076.2 803.1s-3.7-18.4-24.5-56.5c-18-33.1-38.9-94.8-46.7-113.8-1.2-2.9-2.1-4.8-2.6-5.4-4.1-5.1-48-43-48-43l-40.7-13.6-3.7-24.7-33.9-13.3s-4.9-15.1-7-18.2c-1.1-1.6-2.6-2.7-5.3-3.4-2.4-.7-5.8-1-10.7-1.2-10.2-.3-49-7.8-49.1-7.8-.1-17.8 1.6-43.5 9.9-80.2 0 0 24.7-10.9 28.7-31.9v.2s20.6-26.7 21.4-36.4c.8-9.7-2.1-29.6-5.7-30.9-3.5-1.3-20.8-7.2-21.3-19.8-.5-12.6-3.5-59.7-38.7-58.6 0 0-3.4-11.7-13.3-17.1-3.9-2.2-8.9-3.4-15.1-2.5-21.7 3.2-27.8 6.6-32.8 4.4-1.1-.5-3.9-1.2-7.8-1.9-14.1-2.7-41.9-5.9-46.3-2 0 0-41.8 5.2-43.9 24.2 0 .4-.1.9-.1 1.3-.2 20.1-12 50-19.7 57.4-7.7 7.3-22.7 18.6-23.6 23.7s-3.4 18.6 1.5 19.7c0 0 1.5 13.1 17.2 22.6 10.5 6.4 14.5 10.2 18 12 0 0 .2 2.8 1.1 7 2.1 10.3 8.4 29 26 34.8.3 3 .7 6 1.2 8.9 2.6 17.5 7.2 34.7 15.1 45.1 12.7 16.5 24.6 29.9 34.9 37.5 1.7 1.3 3.4 2.3 5 3.2-14.2 5.2-40 14.8-41.3 16.4-1.7 2.2-11.6 22.8-11.6 22.8s-10.7 1.6-20.1 3.3c-5.8 1-11.1 2-12.9 2.7-4.9 1.7-2.1 30-2.1 30l-6.2 10.4-6.6 11-24 40.1-36.5 100.3-10.3 11.2-2.2 2.4-5.5 23.7-12.2 6.8-6-10.1s-5.9-3-11.5-3.7c-5.6-.8-10.5-9.2-16.1-16.6s-20.7-20.4-26.6-25c-5.9-4.6-11.2-18.1-11.2-18.1l-14.5-.9-10.9-8.2c-.3 0-.8.2-1.5.6 0 0-11.7-18.3-12.4-25.9-.8-7.7-2.6-28.9-10.7-41.1s-19.1-26-20.7-36.3c-1.5-10.2-4.9-20.7-7.7-19.1s-15.3 17.4-11.2 25.8c4.1 8.4 7.4 38.3 7.4 38.3s-18.9-11.2-21.7-13c-.5-.3-2.2-2-4.7-4.5-11.2-11.4-38-40.1-40.7-42.4-3.3-2.8-13 1-15.3 1.8-2.3.8-15.1 10.2-14.3 18.6.8 8.3.8 44.3 8.3 55.9.1.2.2.4.3.5.2.5.8 1.3 1.7 2.2 10.1 12.6 39.7 41.9 44.8 44.7 5.4 3.1 42.4 13.7 49.3 19.5s10.6 11.8 10.6 11.8c-1 1.1-1.5 1.7-1.5 1.7l3.6 12.4 11.6 49.4s21.4 14 27.6 20.1c3.9 3.9 32.5 39.8 53.2 65.9 12.2 15.4 21.7 27.4 21.7 27.4s12.1.2 27.5 1.2c3.4.2 7 .5 10.7.8 4.6.4 12.4-5.5 21.5-14.9 26.4-26.9 64.9-82.2 75.3-97.4 1.7-2.5 2.7-3.9 2.7-3.9s11 25.3 15.3 36.8c4.3 11.5 26.3 92.9 26.3 92.9s1.2 1.8 4.7 5c12.7 4.3 25.3 8 37.7 11.1 30.6 7.8 59.9 12.1 86.4 12.6 50.7 1.1 95.8-9.7 134-25 6.3-.7 14.7-3.1 25.8-8.1 3.7-1.6 7.3-3.4 11-5.4 0-.2-11.7-50.4-15.8-65.4-4.1-15.1 0-62.6 0-62.6 48.6-6.6 57.6 97.9 49.5 106.6-.2.2-.4.4-.6.7 20.2-14.4 38-30.2 49.8-41.2l.1-.1c9.7-8.9 14.8-14.6 14.8-14.6l-5.6-61.7z"/><g id="human"><g id="hoodie"><path fill="none" d="M980.1 851.8c-.9-2.7-19.4-50.2-19.4-50.2s-.2 1.3-.6 3.6c-1.8 12.5-7.5 54.4-2.9 75.3 3.5 16 10.9 46.7 15.6 66.4 8.3-4.2 16.1-8.6 23.5-13.1v-64.3c.1 0-15.4-15-16.2-17.7z"/><path fill="#dcb427" d="M720.7 973.8c30.6 7.8 59.9 12.1 86.4 12.6 38.5-16.2 102.2-52.5 105.6-57 4.4-5.8 18-41.2 18-41.2s-3.1-9.5-1.4-34c1.7-24.5-20.1-26.2-20.1-26.2l-22.1 18.7c-.7.7-1.4 1.3-2.1 1.7l2.1-1.7c18.4-19.2 28.6-130.3 28.6-130.3l10.5 16.3v-21.4l9.4 30.9 22.7 53.9.3 1.5c1.3 2.6 2 4.1 2 4.1s18.6 47.5 19.4 50.2c.9 2.7 16.3 17.7 16.3 17.7l22.5 20.8-1.9 30.4c19.1-13.1 33.9-25.5 43.8-34.6-4.5-39.4-12.7-100.6-21.3-117-13-24.7-43.1-135.1-43.1-135.1s-44.3-27.1-54-31.6c-9.7-4.4-37.9-14-37.9-14s3.4-6.2 3.2-11l-3.7-24.7-33.9-13.3 2.2 15.7s-1.4 12-2.8 16.7c-1.4 4.7-40.6 33.8-40.6 33.8s24.3-40.7 24.4-47.1c.1-6.4-8.2-11.5-4.6-16.7 3.6-5.2-9.3-24.3-9.3-24.3l18.5.3s-46.6-1.2-51.1.9c-4.4 2 8.5 15.6 12.4 22.1 4 6.5-2.8 25.5-2.8 25.5L760 630.3s-106-38.4-116.8-39.4c-10.7-1-6.3-18.9-6.3-18.9-5.8 1-11.1 2-12.9 2.7-4.9 1.7-2.1 30-2.1 30l51.2 16.8c8.2 1.4 17.9 2.8 28.9 4.2 24.7 3.1 47 21.8 47 21.8-20.6-16.9-94.1-20.6-108.8-21.4s-31.1 0-31.1 0l-24 40.1-36.5 100.3-10.3 11.2c.3 4.5 1.4 10.8 4.7 16.8 6.3 11.1 35 59.4 35 59.4s12.8-60.5 18.6-66.1c5.9-5.6.8-48.8.8-48.8l10.5 12-1.3-44.9 30.1 121.8s36 49.8 38.6 68.2c1.7 12.6 28.7 53.3 45.4 77.7zm82.9-93.3c-10.5-3.6-73.5-48.7-73.5-48.7s78.6 38.2 88.1 41.8c9.4 3.6 35-2.2 35-2.2.6 10.9-39.1 12.7-49.6 9.1zm15.9-9.7c-15.8-3.3-82.7-42.1-82.7-42.1l126.1 34.7s-27.6 10.7-43.4 7.4zm87.4-32.3c3.1 3.4-19.4 24.9-25.5 28.3-6.1 3.4-12.3 0-12.3 0s34.7-31.7 37.8-28.3zm-11.6-258.1c2.4-6.5 5.6-23.7 5.6-23.7s4.8 21.8 2.6 25.4-23.1 20.7-32 22.1c-8.9 1.3 21.4-17.3 23.8-23.8zM837.4 623c12.5-2.8 54.9-22.5 63.5-29.3 1-1 1.5-1.7 1.5-1.7-.1.4-.6 1-1.5 1.7-4.6 5-18.6 19.7-26.7 23.2-9.9 4.3-104.8 34.2-104.8 34.2s54.2-25 68-28.1zM634 777.8c-8.5-13.1-18.4-69.6-18.4-69.6-.9-19.4 50.9 35.7 69.3 46.2s51.6 25.8 72.9 47c17.6 17.4 36.7 28.1 40.8 30.3.2.1.3.1.4.2.7.3.5.3-.4-.2-5.7-2.4-45.8-13.9-63-21.9-17.6-8.2-23.7 15.8-26.2 15.3s-22-10.7-36.4-19.9-30.5-14.3-39-27.4zm190.8 140.7c-49-.5-168.5-113.4-168.5-113.4l168.5 113.4zM996.4 633.9s.9 1.9 2.6 5.4c-1.2-2.9-2.1-4.8-2.6-5.4zM421.6 727.9c-2.4-.3-14.4 11.7-24.7 22.4 12.2-2.2 35.6-14.3 35.6-14.3l-10.9-8.1zM555.7 911.1c4.1-13.5 22.2-57.2 22.2-57.2l-39.7-48.8-7.7-1.4-12.2 6.8-6-10.1s-5.9-3-11.5-3.7c-5.6-.8-10.5-9.2-16.1-16.6s-20.7-20.4-26.6-25C452.3 750.5 447 737 447 737s-25 27.6-30.4 30.9-10.5 17.1-10.2 23c.3 5.9 19.9 38.3 22.5 41.4 2.6 3.1 15.8 21.4 22 33.4s26.6 48.9 26.6 48.9C489.6 930 499 942 499 942s12.1.2 27.5 1.2c10.1-8.3 26.4-22.8 29.2-32.1zm-39.8-64.3c-.1 1.9-.2 3.2-.2 3.2s.1-1.2.2-3.2c.3-5.9.3-18.1-4.3-21.5-6.1-4.5-17.4-5.2-25.5-14.4-8.2-9.2-45.6-52.8-36.8-57.5 0 0 16.7 17.4 23.8 24.4s18.4 27.4 24.9 29.4 15.7-2.4 17.7 7.1c1.6 7.5.7 25.3.2 32.5z"/><path fill="#b69730" d="M643.2 590.9c10.7 1 116.8 39.4 116.8 39.4l56.4-64.1-110.9 9.1c10-28 84.4-37.4 84.4-37.4s18.7 3.4 24 7.3 2.5 20.9 2.5 20.9 6.8-19 2.8-25.5-16.9-20.1-12.4-22.1c4.4-2 51.1-.9 51.1-.9-2.4-.7-5.8-1-10.7-1.2-10.2-.3-49.1-7.8-49.1-7.8L719 526.2s-48.7 17.6-50.4 19.8c0 0-10.9 20.3-9.9 29.4 1 9.1 3.9 13.9 8.2 16.8 0 0-15.7-.8-17.9-8.6S636.9 572 636.9 572s-4.4 17.9 6.3 18.9zM640.1 626.1c14.6.8 88.2 4.6 108.8 21.4 0 0-22.3-18.7-47-21.8-11-1.4-20.7-2.8-28.9-4.2 0 0-22.5.1-32.9-1.6s-24.5-4.8-24.5-4.8l-6.6 11c.1 0 16.5-.8 31.1 0zM869.5 571.7c1.4-4.7 2.8-16.7 2.8-16.7l-43.4 50.6c0-.1 39.2-29.2 40.6-33.9zM902.4 592.1s-.6.6-1.5 1.7c.9-.8 1.5-1.3 1.5-1.7zM900.9 593.7c-8.6 6.8-51 26.5-63.5 29.3-13.8 3.1-68 28.1-68 28.1s94.9-30 104.8-34.2c8.1-3.5 22.1-18.2 26.7-23.2zM958.4 796l-22.7-53.9-9.4-30.9c4.9 28.1 25.9 72.7 32.5 86.3l-.4-1.5zM946.9 846.7l6.1-28.5s-5.1-19.9-11-24.8c-5.9-4.9-15.8 6.4-15.8 6.4 5.6-12.5 0-67.1 0-67.1l-10.5-16.3s-10.1 111.2-28.6 130.3l22.1-18.7s21.8 1.7 20.1 26.2c-1.7 24.5 1.4 34 1.4 34s-13.6 35.4-18 41.2c-3.4 4.4-67 40.8-105.6 57 65.5 1.4 121.9-17 165.8-39.5-4.8-19.7-12.1-50.4-15.6-66.4l-10.4-33.8zM1018.9 890.3l-22.5-20.8v64.3c7.3-4.4 14.2-8.8 20.6-13.2l1.9-30.3z"/><path fill="#b69730" d="m887.1 846.7-2.1 1.7c.8-.4 1.5-1 2.1-1.7zM819.5 870.8c15.8 3.3 43.4-7.4 43.4-7.4l-126.1-34.7c-.1 0 66.8 38.8 82.7 42.1zM656.3 805.2s119.5 112.9 168.5 113.4L656.3 805.2zM619.9 812.1c-1.4-8.5-13.4-106-13.4-106l1.3 44.9-10.5-12s5.1 43.1-.8 48.8c-5.9 5.6-18.6 66.1-18.6 66.1s-18.1 43.7-22.2 57.2c-2.8 9.2-19.1 23.8-29.2 32.1 3.4.2 7 .5 10.7.8 4.6.4 12.4-5.5 21.5-14.9 0 0 44-67.5 48.6-91 4.6-23.4 14-17.4 12.6-26z"/><path fill="#b69730" d="M577.9 853.9s-28.7-48.3-35-59.4c-3.4-6-4.4-12.2-4.7-16.8l-2.2 2.4-5.5 23.7 7.7 1.4 39.7 48.7zM450.8 865.7c-6.1-12-19.4-30.4-22-33.4-2.6-3.1-22.2-35.5-22.5-41.4-.3-5.9 4.9-19.7 10.2-23S447 737 447 737l-14.5-.9s-23.4 12-35.6 14.3c-8.3 8.7-15.5 16.5-15.5 16.5l3.6 12.4 11.6 49.4s21.4 14 27.6 20.1c3.9 3.9 32.5 39.8 53.2 65.9 0-.1-20.5-37-26.6-49zm-63.2-87.9c3.7-11 40.2-34.9 40.2-34.9-3.8 6.3-40.2 34.9-40.2 34.9z"/><path fill="#896b2a" d="M813.9 545.3c-5.3-3.9-24-7.3-24-7.3s-74.4 9.3-84.4 37.4l110.9-9.1c0-.1 2.8-17.1-2.5-21zM649 583.5c2.2 7.8 17.9 8.6 17.9 8.6-4.3-2.9-7.1-7.7-8.2-16.8-1-9.1 9.9-29.4 9.9-29.4-1.7 2.2-11.6 22.8-11.6 22.8s-10.7 1.6-20.1 3.3c0 0 9.9 3.7 12.1 11.5zM673.1 621.6l-51.2-16.8s18.6 8.6 28 11.7c5.1 1.6 13 3.3 23.2 5.1z"/><path fill="#896b2a" d="M673.1 621.6c-10.2-1.7-18-3.5-23.2-5.2-9.4-3.1-28-11.7-28-11.7l-6.2 10.4s14.1 3.1 24.5 4.8 32.9 1.7 32.9 1.7zM960.7 801.6s-.7-1.5-2-4.1l1.5 7.7c.2-2.3.5-3.6.5-3.6zM926.2 799.8s10-11.2 15.8-6.4c5.9 4.9 11 24.8 11 24.8l-6.1 28.5 10.4 33.8c-4.6-20.9 1-62.8 2.9-75.3l-1.5-7.7c-6.6-13.6-27.5-58.2-32.5-86.3v21.4c0 .1 5.6 54.7 0 67.2zM622.9 788.3c2 7.7 11.1 43.5 11.1 43.5 1.7-2.5 2.7-3.9 2.7-3.9l-30.1-121.8c-.1 0 14.2 74.6 16.3 82.2z"/><path fill="#896b2a" d="M606.5 706.1s12 97.5 13.4 106-8 2.6-12.6 26c-4.6 23.5-48.6 91-48.6 91 26.4-26.9 64.9-82.2 75.3-97.4 0 0-9.1-35.8-11.1-43.5-2.1-7.5-16.4-82.1-16.4-82.1zM427.7 742.9s-36.4 23.9-40.2 34.9c.1 0 36.5-28.6 40.2-34.9z"/><path fill="#f8cc40" d="M1060.8 886c9.7-8.9 14.8-14.6 14.8-14.6l-5.3-61.8s-3.7-18.4-24.5-56.5c-18-33.1-38.9-94.8-46.7-113.8-1.7-3.5-2.6-5.4-2.6-5.4s30.1 110.4 43.1 135.1c8.6 16.3 16.7 77.6 21.2 117zM942.4 602.3c9.7 4.4 54 31.6 54 31.6-4.1-5.1-48-43-48-43l-40.7-13.6c.2 4.8-3.2 11-3.2 11s28.2 9.6 37.9 14zM848.7 541.7c-3.6 5.2 4.7 10.3 4.6 16.7-.1 6.4-24.4 47.1-24.4 47.1l43.4-50.6-2.2-15.7s-4.9-15.1-7-18.2c-1.1-1.6-2.6-2.7-5.3-3.4l-18.5-.3c.1.1 13 19.1 9.4 24.4zM871.5 604.1c8.9-1.4 29.8-18.5 32-22.1s-2.6-25.4-2.6-25.4-3.2 17.2-5.6 23.7c-2.4 6.6-32.7 25.2-23.8 23.8zM818.2 873.6c-9.4-3.6-88.1-41.8-88.1-41.8s63.1 45.1 73.5 48.7 50.1 1.8 49.5-9.1c.1 0-25.5 5.8-34.9 2.2zM881.3 866.8c6.1-3.4 28.6-24.9 25.5-28.3-3.1-3.4-37.8 28.3-37.8 28.3s6.2 3.4 12.3 0zM799.1 831.8c-.1-.1-.3-.1-.4-.2.9.5 1.1.6.4.2zM709.5 825.1c2.5.5 8.6-23.5 26.2-15.3 17.1 7.9 57.2 19.4 63 21.9-4.1-2.2-23.2-12.8-40.8-30.3-21.4-21.2-54.6-36.5-72.9-47-18.4-10.5-70.1-65.6-69.3-46.2 0 0 9.8 56.6 18.4 69.6 8.5 13.1 24.7 18.2 39.1 27.4s33.8 19.4 36.3 19.9zM675.2 896.1c-2.6-18.4-38.6-68.2-38.6-68.2s11 25.3 15.3 36.8c4.3 11.5 26.3 92.9 26.3 92.9s1.2 1.8 4.7 5c12.7 4.3 25.3 8 37.7 11.1-16.6-24.3-43.6-65-45.4-77.6zM515.9 846.8c-.1 2-.2 3.2-.2 3.2s.1-1.2.2-3.2z"/><path fill="#f8cc40" d="M498 807.2c-6.5-2-17.7-22.5-24.9-29.4s-23.8-24.4-23.8-24.4c-8.9 4.8 28.6 48.3 36.8 57.5 8.2 9.2 19.4 9.9 25.5 14.4 4.6 3.4 4.6 15.6 4.3 21.5.5-7.3 1.4-25-.2-32.5-2-9.5-11.2-5-17.7-7.1z"/></g><g id="hand"><path fill="none" d="M278.4 689.2c-.7-.8-1.2-1.6-1.7-2.2.2.5.8 1.2 1.7 2.2z"/><path fill="#ecc19f" d="M276.7 687c.5.7 1.1 1.4 1.7 2.2 9.2 10.2 50.2 43.6 54.3 45.5 4.5 2 12.5 1.4 23.6 3.1 11.1 1.7 21.1 11.1 25.9 12.6 4.9 1.5 13.1-2.4 17-4.4s20.9-17.5 20.9-17.5-11.7-18.3-12.4-25.9c-.8-7.7-2.6-28.9-10.7-41.1s-19.1-26-20.7-36.3c-1.5-10.2-4.9-20.7-7.7-19.1s-15.3 17.4-11.2 25.8c4.1 8.4 7.4 38.3 7.4 38.3s1.2 2.6-2.9 12-3.4 26.2-3.4 26.2-4.1-9.4-4.1-13.8-2.7-14.5-5.6-17.5-12.3-2.7-12.8 1.2c-.5 3.9-20.1 32.3-18.6 40.3 0 0-3.2-9.5-1.8-13.8-6-3.3-23.3-21.5-32.2-31-1.9-1.9-3.7-3.9-5.4-5.9 0 0 2.1 2.4 5.4 5.9 13.1 13.1 30.1 22.6 34.9 25.2 1.3-2.7 2.9-6.1 4.7-9.6-12.1-8.9-49.6-57.3-49.6-57.3l51.7 53.1c2.7-5.3 5.3-10.5 7-13.8-5-3.8-18.5-18.2-23.4-23.7-5.2-5.9-25.8-29.2-25.8-29.2l51.3 49.2c2-3.5 4.1-15.2 4.1-15.2-11.2-11.4-38-40.1-40.7-42.4-3.3-2.8-13 1-15.3 1.8-2.3.8-15.1 10.2-14.3 18.6.8 8.3.8 44.3 8.3 55.9.1.2.2.3.4.6z"/><path fill="#c38460" d="M399.2 745.9c-3.8 2-12.1 5.9-17 4.4s-14.8-10.9-25.9-12.6c-11.1-1.7-19.1-1-23.6-3.1-4.1-1.9-45.1-35.3-54.3-45.5 10.1 12.6 39.7 41.9 44.8 44.7 5.4 3.1 42.4 13.7 49.3 19.5s10.6 11.8 10.6 11.8l37.1-36.7c-.1.1-17.2 15.5-21 17.5zM276.7 687c-.1-.2-.2-.4-.3-.5 0 .1.1.3.3.5z"/><path fill="#c38460" d="M283.4 673.7c8.9 9.6 26.2 27.7 32.2 31-1.4 4.3 1.8 13.8 1.8 13.8-1.5-8 18-36.4 18.6-40.3.5-3.9 9.9-4.3 12.8-1.2s5.6 13.1 5.6 17.5 4.1 13.8 4.1 13.8-.7-16.9 3.4-26.2c4.1-9.4 2.9-12 2.9-12s-18.9-11.2-21.7-13c-.5-.3-2.2-2-4.7-4.5 0 0-2.1 11.6-4.1 15.2L283 618.6s20.6 23.4 25.8 29.2c4.8 5.4 18.4 19.9 23.4 23.7-1.8 3.3-4.4 8.5-7 13.8l-51.7-53.1s37.5 48.3 49.6 57.3c-1.7 3.5-3.4 6.9-4.7 9.6-5-2.8-21.9-12.3-35-25.4zM283.4 673.7c-3.3-3.5-5.4-5.9-5.4-5.9 1.6 2 3.5 4 5.4 5.9z"/><path fill="#f8d9c4" d="M404.6 701.3c1.5-3.7-5.7-29.6-7.7-33.5-2-3.9-15-21.6-15.5-23.1s3.7 13.8 6.1 23.1.3 20.3.7 25.5c.4 5.3 14.1 13.9 16.4 8zM341.8 732.1c.7.2-20.1-5.1-20.1-12.3s15.8-37.8 16.7-35.7c.9 2-6 18.3-6.6 24-.8 5.7-6.9 18 10 24z"/></g><g id="tshirt"><path fill="none" d="M721.9 619.1c2.2 1.1 7.3 1.1 13.8 0-5.8-2.8-12-5.9-17.4-8.8.9 4.7 2.1 8 3.6 8.8z"/><path fill="#3a3939" d="M718.3 610.3c5.5 2.9 11.6 6 17.4 8.8 9.5-1.6 21.8-5.5 31.7-11.2 12.8-7.5 26.3-33.7 31.7-45.3L718 571c-2.4 7.1-2.1 27.4.3 39.3z"/><path fill="#1b1b1b" d="M701.1 598.1c.7 2.6 8 7.2 17.2 12.2-2.4-11.9-2.7-32.2-.2-39.3l-12.5 4.3c-.1 0-6.6 15.3-4.5 22.8zM767.4 607.9c-9.9 5.8-22.2 9.6-31.7 11.2 12.8 6.2 24.3 11.1 24.3 11.1 17-5.8 56.4-64.1 56.4-64.1l-14.8-3.8-2.5.3c-5.5 11.6-18.9 37.8-31.7 45.3z"/><path fill="#1b1b1b" d="M807.9 572.8s-25.8 19.3-41.1 20.8-35.7-1.1-35.7-1.1 32.8 4.7 39.2 3.9c6.4-.8 24.6-8.7 24.6-8.7l13-14.9zM718.1 571s4.7 8.8 21.9 12.5c0 0-23.6-2.2-25.7-4.4-2.2-2.1 3.8-8.1 3.8-8.1z"/></g><g id="head"><g id="face"><path fill="#ecc19f" d="M816.7 377.3c-3.2 2.4-8.6-.3-15-5.6-.9 6.5-1.8 11-1.8 11l-16.3-2.6c-29.1-1.4-41-50.6-41-50.6-7.5 35.9-64.2 35.1-64.2 35.1s14.8 15 16.6 19.6-3.1 27-3.1 27-6.5 52-5.7 52.9l20.9 4.7-2.6 14.2 9.9 28.4s-18.5 6.8-1.1 19.6c.2.1.3.2.5.4 3.3 1.4 6.3 1.9 9.1 1.5 7.7-1.2 32.6-16.3 51.7-28.4-8.1 9-18.8 21.4-20.9 26.3-3.4 8.2-8.7 20.8-17.5 25.7-5.9 3.3-13.6 6.4-18.1 8.2.2 3.7.3 7.2 0 10 38.9 25.6 84.9-7.1 83.8-12.3-.7-3.5-1.8-18.7-2.4-28.9-.1-2.4-.3-5.2-.5-8.6v-.1c-1-17.1-1.9-46.7 9.3-96.2 0 0 25.9-11.4 28.9-33.4 2.8-22-8.5-27.1-20.5-17.9z"/><path fill="#c38460" d="m714.2 511.4-9.9-28.4 2.6-14.2-20.9-4.7c-.8-.9 5.7-52.9 5.7-52.9s4.9-22.4 3.1-27-16.6-19.6-16.6-19.6 56.7.9 64.2-35.1c0 0 11.9 49.2 41 50.6l16.3 2.6s.9-4.5 1.8-11c-18.1-14.9-44.7-50.2-56.2-50.8-12.8-.6-71.7 11-89.2 42-3.8 6.8-5.7 14.4-4.7 23.1v1.2c-.1 5.8-.4 31.4 3.4 56.5 2.6 17.5 7.2 34.7 15.1 45.1 12.7 16.5 24.6 29.9 34.9 37.5 2.8 2.1 5.5 3.7 8.1 4.8l.2-.1c-17.4-12.8 1.1-19.6 1.1-19.6zM753.5 530.8c2.1-5 12.8-17.3 20.9-26.3 0 0-26.5 22-30.7 27.4-3.7 4.8-22.9 13.7-27.7 16 .9 5.5 1.6 11.4 1.9 16.8 4.5-1.7 12.2-4.9 18.1-8.2 8.8-4.9 14.1-17.5 17.5-25.7z"/><path fill="#804420" d="M743.6 531.9c4.3-5.4 30.7-27.4 30.7-27.4-19.1 12.1-44 27.2-51.7 28.4-2.8.4-5.8-.1-9.1-1.5-.2-.1-.3-.2-.5-.4l-.2.1c0 .1 0 .2.1.3.8 4 2 10 3 16.5 4.8-2.3 24-11.2 27.7-16z"/><path fill="#6e1918" d="M715.6 493.1c-3.3 1.3-2 7.7-2 7.7 1.1-10.9 15.5-10 20.7-9.3 2.6-9.4 2.3-18.7 2.3-18.7-8.3 11.4-43.2 15.7-43.2 15.7s1 3.9 3.2 8.5c5-5.6 19-3.9 19-3.9z"/><path fill="#db4747" d="M714.2 511.4c11.8-.7 17.4-10.4 20-20-5.2-.7-19.6-1.5-20.7 9.3 0 0-1.3-6.4 2-7.7 0 0-14-1.6-19.1 3.8 3.3 6.9 9.1 15.1 17.8 14.6z"/><path fill="#804420" d="m686 464.1-3.2 4 24.1.6z"/><path fill="#c38460" d="M821.9 384.1s8.9-6 8.9 3.9c-.1 10-7.9 21.4-7.9 21.4s7.1-24.5-1-25.3z"/><ellipse cx="673.2" cy="408.8" fill="#3a3939" rx="3.8" ry="4.2"/><ellipse cx="730.8" cy="405.4" fill="#3a3939" rx="3.8" ry="4.2"/><path fill="#3a3939" d="M751.9 381s-5.4-6.5-7-7.6c-1.6-1.1-27.3-3.7-28.1-2-.8 1.6-3 5.9 0 6.7 3 .9 27.1-.8 35.1 2.9zM659.3 382.6s32.3-4.9 32.3-6.7-.5-6.1-2.9-6.1-27.5 3.5-29.4 12.8z"/><path fill="#f8d9c4" d="m688.2 460.2 6.6-43s3.4 46.1.7 46.1-8.7.4-7.3-3.1zM774.3 434.1s6-25.7 1.2-30.3c-4.8-4.6-26.9-14.3-20.6-4.8 6.3 9.6 14.6 39.7 19.4 35.1zM799.6 442.6s-7.7 73.9-4.3 86c3.4 12.2-1.8 14.8-5.6 14.8-3.9.1 4.5-90.3 9.9-100.8z"/></g><g id="hair"><path fill="none" d="M824.8 373.6c-.5.1-1 .2-1.5.4 2.9-.4 4.8-.5 4.8-.5-1.3-.2-2.4 0-3.3.1z"/><path fill="#3a3939" d="M674.2 359c-.1.9-.2 1.8-.4 2.7.2-.8.4-1.8.4-2.7z"/><path fill="#3a3939" d="M852.3 329.5c-3.5-1.3-20.8-7.2-21.3-19.8-.5-12.6-3.5-59.7-38.7-58.6 0 0-3.4-11.7-13.3-17.1-.2-.1-14.3-3.4-21.2 4.2-6.9 7.7-34.5-4.1-34.6-4.1-14.1-2.7-41.9-5.9-46.3-2 0 0-41.8 5.2-43.9 24.2-.1 9.3 4.4 18.6 5.5 25 1.8 10.2-12.3 41.9-19.9 58.2-7.7 16.3 10.7 27.3 21.3 33.7 10.6 6.4 34.1-14.1 34.1-14.1-15.8-4.8-11.7-11.1-11.7-11.1 14.3 10.5 81.3-18.4 81.3-18.4v.8c.3 5.7 4.1 40.3 45.6 45.9 0 0-7.1 24.7 7.6 36.8-7.1-6.1-.3-27.6 2.9-32.4 2.3-3.5 16.1-5.7 23.5-6.6.5-.1 1-.3 1.5-.4.8-.2 2-.3 3.3-.2 4.8.5 10.9 4.4 8.5 23.3 0 0 20.6-26.7 21.4-36.4.9-9.7-2-29.6-5.6-30.9z"/><path fill="#111112" d="M763.9 231.6c-21.7 3.2-27.8 6.6-32.8 4.4-1.1-.5-3.9-1.2-7.8-1.9.1 0 27.7 11.7 34.6 4.1 6.8-7.6 20.9-4.2 21.2-4.2-4-2.2-9-3.4-15.2-2.4zM640.1 373.2c-10.6-6.4-29-17.4-21.3-33.7 7.7-16.3 21.7-48 19.9-58.2-1.1-6.3-5.6-15.7-5.5-25 0 .4-.1.9-.1 1.3-.2 20.1-12 50-19.7 57.4-7.7 7.3-22.7 18.6-23.6 23.7s-3.4 18.6 1.5 19.7c0 0 1.5 13.1 17.2 22.6 10.5 6.4 14.5 10.2 18 12 0 0 .2 2.8 1.1 7 2.1 10.3 8.4 29 26 34.8 0 0-1.9-21.9-2.2-40.6a135 135 0 0 1 0-9c10-6.5 20.3-15.4 22.4-23.4.1-.9.3-1.8.4-2.7 0-.1-23.5 20.5-34.1 14.1zM799.8 380.6c-3.2 4.9-10 26.3-2.9 32.4 0 0 10.3-34.1 26.4-39-7.4.9-21.2 3.1-23.5 6.6z"/><path fill="#111112" d="M662.4 347.9s-4.1 6.3 11.7 11.1c0 0 48 6 69.5-29.5.1 0-66.9 28.9-81.2 18.4zM743.7 330.3v-.8.8z"/><path fill="#777676" d="M639 368.6s-23-9.9-14.8-24.1 12.3-36.7 12.3-36.7-16.4 42.9 2.5 60.8zM639 259.6s-5.1-8.5 12.9-14 22.9-10.6 34.7-10.4c11.8.2 38.2 5.5 38.2 5.5s-40.7-3.8-53.4 1.8c-12.9 5.7-36.4 31.3-32.4 17.1zM830.8 318.8s-9.5-4.6-7.5-18.1-13-34.7-19.9-39.3-17.6-8.7-5.1 6.1c12.5 14.8 32.5 51.3 32.5 51.3z"/></g></g></g><path fill="#fcd21d" d="M464.9 225.5C432.6 150 345.1 115 269.6 147.3c-75.5 32.4-110.5 119.8-78.2 195.3 13.7 32 47.6 58.8 65.7 72.1 69.7 51.2 82.5 58 103.7 99.2 23.7-10.2 93.1-39.9 111.3-47.7-15.1-42.1-10.3-62.5-.3-143.5 5.3-43.2 6.8-65.2-6.9-97.2z"/><linearGradient id="SVGID_6_" x1="557.085" x2="432.263" y1="58.877" y2="201.642" gradientTransform="rotate(-24.292 596.154 482.401)" gradientUnits="userSpaceOnUse"><stop offset="0" stop-color="#fff"/><stop offset="1" stop-color="#fff" stop-opacity="0"/></linearGradient><path fill="url(#SVGID_6_)" d="M450.8 265.6c-16.8 38.7-74.3 51.1-128.5 27.6-54.1-23.5-84.4-74-67.6-112.7 16.8-38.7 74.3-51.1 128.5-27.6s84.4 74 67.6 112.7z"/><linearGradient id="SVGID_7_" x1="304.595" x2="427.959" y1="452.76" y2="204.597" gradientTransform="rotate(-23.186 588.545 485.273)" gradientUnits="userSpaceOnUse"><stop offset="0" stop-color="#d27628"/><stop offset="1" stop-color="#d27628" stop-opacity="0"/></linearGradient><path fill="url(#SVGID_7_)" d="M182.8 252.5c-6.4 29.2-4.1 60.6 8.6 90.1 13.7 32 47.6 58.8 65.7 72.1 69.7 51.2 82.5 58 103.7 99.2 23.7-10.2 93.1-39.9 111.3-47.7-15.1-42.1-10.3-62.5-.3-143.5.5-4 .9-7.8 1.4-11.5-97.6 138.4-253.6 63.4-290.4-58.7z"/><ellipse cx="357.7" cy="174.7" fill="#fff" opacity=".57" rx="25.8" ry="60.8" transform="rotate(-74.49 357.667 174.686)"/><path fill="#fff" d="M239.9 394.7c-10.6-8.1-20.1-17.8-28-28.7l-3-4.1c-.9-1.4-1.8-2.8-2.7-4.3l-2.7-4.3-2.4-4.5c-.8-1.5-1.6-3-2.3-4.5l-2.1-4.6-1-2.3c-.3-.8-.7-1.5-1-2.3l-1.7-4.8-.8-2.4c-.3-.8-.6-1.6-.8-2.4l-1.4-4.9-.7-2.4c-.2-.8-.5-1.6-.6-2.5l-1-5c-.3-1.7-.7-3.3-.9-5l-.6-5c-.2-1.7-.4-3.3-.6-5l-.2-5-.2-5c0-1.7.1-3.4.1-5 .2-3.4.2-6.7.6-10l.6-5c.2-1.7.4-3.3.7-5 .6-3.3 1.3-6.6 2-9.8-2 13.2-2.6 26.6-1.7 39.8 1 13.2 3.6 26.3 8 38.7 4.4 12.5 10.5 24.3 17.9 35.3 7.7 11 16.6 21 26.5 30z"/><path fill="#004d75" d="M397.1 488.1c-7.6-19.3-15.9-38.4-25.6-56.8-6.6-12.4-13.9-24.7-23.1-35.4-5.5-6.4-12-12.8-20-15.9-5.5-2.1-14.7-3.2-18.5 2.5-3.4 5-1.3 12.4 3.1 16.1 6.6 5.4 16.5 4.9 24.4 4.1 17.7-1.7 34.6-8.9 48.3-20.1 10.7-8.8 30.4-28.5 21.3-43.8-3.2-5.4-10.1-8.6-15.9-5.1-5.7 3.4-7.4 11.1-7.3 17.2.3 9.5 3.7 19.7 6.8 28.6 3.8 11 8.3 21.8 12.6 32.5 8.1 20.2 16.7 40.2 25.1 60.4.8 2 4.2 1.1 3.4-.9-12.5-30-25.5-59.9-36.8-90.4-2.6-7-4.5-14.3-6.1-21.6-1.5-6.7-2.8-15.2 2.1-20.9 3.5-4 8.8-3.4 12.2.5 3.4 4 3.3 9.3 1.7 14-2.8 8.1-9.1 15.5-15.1 21.5-11.3 11.2-25.8 19.2-41.3 22.9-8 1.9-17.2 3.3-25.4 1.7-3.9-.8-8.3-2.5-10.1-6.4-1.8-3.8-1.3-8.5 2.9-10.2 12.2-4.8 25.2 9.6 31.8 17.6 21.1 25.7 34.3 58.3 46.4 88.9.5 2 3.9 1.1 3.1-1z"/><path fill="#055d6e" d="m470.4 468.8-27.9 12c11.3-4.2 22.6-8.3 28.6-10.4l-.7-1.6zM475.2 480l3.9 9.2-76.1 32.6c-.8 3.9-1.3 7.5.3 9.3l79.2-33.9-11.1-26.2c-12.6 6.9-51 28-62.9 37.6l66.7-28.6zM361.1 515.6l1.2 2.8c12.6-6.4 34.2-16.8 43.5-21.9l-44.7 19.1z"/><path fill="#01788f" d="M404.9 512.6c-.2 2.7-1.1 6.1-1.8 9.2l76.1-32.6-3.9-9.2-66.7 28.6c-2.3 1.8-3.6 3.2-3.7 4zM487.9 509.6l-77.3 33.2zM421.9 549.8c0 1.8 3.1 4.9 6.6 7.9l51-21.9 4-12.4-61.6 26.4z"/><path fill="#055d6e" d="m487.9 509.6-4.4 13.8 4.4-13.8z"/><path fill="#055d6e" d="M410.6 542.8c.4.7.6 1.2.6 1.2l70-28.7s-59.2 30.4-59.3 34.5l61.6-26.4 4.4-13.8-77.3 33.2zM479.5 535.8l-4.1 12.7zM438 564.6l37.4-16 4.1-12.7-51 21.9c3.5 2.8 7.6 5.6 9.5 6.8z"/><path fill="#01788f" d="M448.5 580.1c1.1 2.1 3.8 4.2 6.7 5.9 1-.3 1.9-.7 2.9-1.1 20-8.6 19.8-24.3 19.8-24.3l-20.2 8.6c-5.1 3.4-10.8 7.8-9.2 10.9z"/><path fill="#084149" d="M409.7 494.2c-.7.5-2.1 1.3-3.9 2.3l36.7-15.7c-15.1 5.6-30.1 11.4-32.8 13.4zM475.4 468.8s-1.6.6-4.4 1.6l.3.7c2.6-1.5 4.1-2.3 4.1-2.3z" opacity=".58"/><path fill="#055d6e" d="m365.9 526.8 42.6-18.2c11.9-9.6 50.3-30.7 62.9-37.6l-.3-.7c-6 2.1-17.3 6.2-28.6 10.4l-36.7 15.7c-9.3 5.1-30.9 15.5-43.5 21.9l6 14.1-2.4-5.6z"/><path fill="#084149" d="m365.9 526.8 42.6-18.2c11.9-9.6 50.3-30.7 62.9-37.6l-.3-.7c-6 2.1-17.3 6.2-28.6 10.4l-36.7 15.7c-9.3 5.1-30.9 15.5-43.5 21.9l6 14.1-2.4-5.6z" opacity=".58"/><path fill="#055d6e" d="M403.1 521.8 369.9 536l3.4 7.9 30.1-12.9c-1.6-1.7-1.2-5.3-.3-9.2z"/><path fill="#084149" d="M403.1 521.8 369.9 536l3.4 7.9 30.1-12.9c-1.6-1.7-1.2-5.3-.3-9.2z" opacity=".58"/><path fill="#01788f" d="m369.9 536-1.5-3.5z"/><path fill="#084149" d="m369.9 536-1.5-3.5z" opacity=".58"/><path fill="#01788f" d="M404.9 512.6c.1-.8 1.4-2.2 3.6-4l-42.6 18.2 2.4 5.7 1.5 3.5 33.2-14.2c.8-3.1 1.7-6.5 1.9-9.2z"/><path fill="#084149" d="M404.9 512.6c.1-.8 1.4-2.2 3.6-4l-42.6 18.2 2.4 5.7 1.5 3.5 33.2-14.2c.8-3.1 1.7-6.5 1.9-9.2z" opacity=".58"/><path fill="#01788f" d="m410.6 542.8-32 13.6z"/><path fill="#084149" d="m410.6 542.8-32 13.6z" opacity=".58"/><path fill="#01788f" d="m415.4 574.3-12-5.8 25.1-10.8c-3.6-2.9-6.7-6-6.6-7.9l-30.2 12.9 23.7 11.6z"/><path fill="#084149" d="m415.4 574.3-12-5.8 25.1-10.8c-3.6-2.9-6.7-6-6.6-7.9l-30.2 12.9 23.7 11.6z" opacity=".58"/><path fill="#055d6e" d="m391.6 562.8 30.2-12.9c.1-4.1 59.3-34.5 59.3-34.5l-70 28.7s-.2-.5-.6-1.2l-31.9 13.7 13 6.2z"/><path fill="#084149" d="m391.6 562.8 30.2-12.9c.1-4.1 59.3-34.5 59.3-34.5l-70 28.7s-.2-.5-.6-1.2l-31.9 13.7 13 6.2z" opacity=".58"/><path fill="#055d6e" d="m403.4 568.4 12 5.8 22.7-9.7c-2-1.2-6-4-9.5-6.9l-25.2 10.8z"/><path fill="#084149" d="m403.4 568.4 12 5.8 22.7-9.7c-2-1.2-6-4-9.5-6.9l-25.2 10.8z" opacity=".58"/><path fill="#01788f" d="M455.3 586.1c-2.9-1.7-5.6-3.8-6.7-5.9-1.6-3.1 4.1-7.6 9.3-10.8l-31.4 13.5c-.1-.1 10.5 9.6 28.8 3.2z"/><path fill="#084149" d="M455.3 586.1c-2.9-1.7-5.6-3.8-6.7-5.9-1.6-3.1 4.1-7.6 9.3-10.8l-31.4 13.5c-.1-.1 10.5 9.6 28.8 3.2z" opacity=".58"/><linearGradient id="SVGID_8_" x1="349.392" x2="505.03" y1="419.745" y2="419.745" gradientTransform="rotate(-23.186 588.545 485.273)" gradientUnits="userSpaceOnUse"><stop offset="0" stop-color="#27aae1"/><stop offset="1" stop-color="#cae7f9"/></linearGradient><path fill="url(#SVGID_8_)" d="m488.4 469.3-138.8 59.5c-1.2.5-2.5 0-3-1.2l-7.2-16.7c-.5-1.2 0-2.5 1.2-3l138.8-59.5c1.2-.5 2.5 0 3 1.2l7.2 16.7c.5 1.1-.1 2.5-1.2 3z"/><linearGradient id="SVGID_9_" x1="356.956" x2="497.467" y1="461.368" y2="461.368" gradientTransform="rotate(-23.186 588.545 485.273)" gradientUnits="userSpaceOnUse"><stop offset="0" stop-color="#27aae1"/><stop offset="1" stop-color="#cae7f9"/></linearGradient><path fill="url(#SVGID_9_)" d="M497.8 510.5 372.9 564c-1.2.5-2.5 0-3-1.2l-7.2-16.7c-.5-1.2 0-2.5 1.2-3l124.9-53.5c1.2-.5 2.5 0 3 1.2l7.2 16.7c.5 1.2 0 2.5-1.2 3z"/><linearGradient id="SVGID_10_" x1="385.079" x2="471.65" y1="503.604" y2="503.604" gradientTransform="rotate(-23.186 588.545 485.273)" gradientUnits="userSpaceOnUse"><stop offset="0" stop-color="#27aae1"/><stop offset="1" stop-color="#cae7f9"/></linearGradient><path fill="url(#SVGID_10_)" d="M474.1 543.9 415.5 569c-5.8 2.5-8.8 8.4-6.8 13.2 2.1 4.8 8.4 6.7 14.2 4.2l58.6-25.1c5.8-2.5 8.8-8.4 6.8-13.2-2-4.8-8.4-6.6-14.2-4.2z"/><g id="plane"><path fill="#2f5468" d="m1300.9 671.9-130.4 39.7 2.9 27.6z"/><path fill="#db2c29" d="m1172.8 640.4 155.3 22.4-156.3 15 157.9-14.7-156.9-22.7z"/><path fill="#9eadc6" d="m1171.8 677.8-21.4 2-26 45.9 46.1-14.1 130.4-39.7 28.8-8.8z"/><path fill="#9eadc6" d="M1329.7 663.1 1191 608.3l-18.2 32.1z"/><path fill="#1f3944" d="m1171.8 677.8 156.3-15-155.3-22.4-1 37.4z"/></g><path fill="#055d6e" d="M432 151.3s70.9-45.1 58.2-58.2-52.2 45.8-58.2 58.2zM399 131.8s52-77 33.3-84.7c-18.7-7.8-32.6 69.5-33.3 84.7zM369.6 123.9s6-76.8-10.6-74.8c-16.7 2 4.9 63.5 10.6 74.8z"/><g id="plane_2"><path fill="#9eadc6" d="m1052.6 266.4-86.3 123.1 45.9 33.7zM1052.6 266.4l-108.3 107-41.1-16.1z"/><path fill="#1f3944" d="m944.3 373.4 16.9 48.5 5.1-32.4 86.3-123.1z"/><path fill="#2f5468" d="m961.2 421.9 15.7-24.6-10.6-7.8z"/></g></g></svg>